<?xml version="1.0" standalone="no"?>
<!DOCTYPE svg PUBLIC "-//W3C//DTD SVG 20010904//EN"
 "http://www.w3.org/TR/2001/REC-SVG-20010904/DTD/svg10.dtd">
<svg version="1.0" xmlns="http://www.w3.org/2000/svg"
 width="512.000000pt" height="487.000000pt" viewBox="0 0 512.000000 487.000000"
 preserveAspectRatio="xMidYMid meet">

<g transform="translate(0.000000,487.000000) scale(0.100000,-0.100000)"
fill="#000000" stroke="none">
<path d="M2475 4255 c-38 -7 -72 -13 -75 -13 -3 -1 -45 -18 -93 -39 -108 -46
-186 -119 -281 -263 -55 -83 -66 -108 -80 -180 -22 -107 -14 -306 15 -391 11
-31 20 -74 21 -95 0 -24 9 -48 21 -61 17 -19 18 -27 9 -45 -10 -23 -11 -23
-11 -2 -1 27 -24 46 -45 38 -12 -5 -16 -20 -16 -64 0 -69 11 -82 30 -35 11 29
16 32 31 22 17 -11 17 -12 -1 -30 -24 -21 -27 -88 -6 -106 10 -9 11 -23 4 -62
-8 -46 -7 -55 16 -90 14 -21 26 -47 26 -58 0 -10 7 -35 15 -54 8 -20 15 -51
15 -69 0 -25 3 -29 10 -18 8 13 10 12 10 -3 0 -10 10 -31 21 -46 12 -16 18
-34 14 -41 -4 -7 -3 -15 3 -19 5 -3 12 -17 13 -31 4 -28 20 -50 32 -43 4 2 7
-3 7 -12 0 -8 7 -18 16 -22 15 -6 15 -8 -2 -21 -18 -14 -18 -14 1 -10 17 4 21
0 20 -21 0 -24 3 -26 43 -25 23 0 42 -3 42 -8 0 -5 12 -5 28 -2 15 4 24 3 20
-1 -5 -5 1 -15 12 -22 15 -10 18 -21 14 -39 -5 -18 -2 -24 10 -24 10 0 16 -7
14 -17 -3 -19 90 -71 129 -72 45 -2 133 55 133 85 0 6 7 14 15 18 8 3 15 17
15 31 0 14 5 25 11 25 7 0 32 18 56 41 30 28 51 39 64 36 12 -3 19 0 19 9 0 8
5 14 11 14 6 0 29 14 50 31 28 22 39 38 39 57 0 15 7 46 15 70 9 24 13 48 9
53 -3 5 -2 9 3 8 18 -3 30 2 31 14 1 13 22 93 30 117 3 8 6 18 6 22 1 4 11 14
22 22 16 11 20 22 16 42 -3 19 -1 25 7 20 7 -5 11 5 11 31 0 28 -3 34 -10 23
-5 -8 -10 -10 -10 -5 0 15 13 30 30 33 50 12 54 65 7 113 -24 25 -33 44 -35
74 -3 35 1 42 28 57 26 15 30 23 30 57 0 23 4 60 10 83 47 200 46 192 35 260
-6 39 -3 55 19 99 14 29 26 61 26 71 0 10 5 18 10 18 6 0 10 16 10 35 0 19 -4
35 -9 35 -5 0 -12 11 -15 25 -16 63 -148 181 -251 224 -5 2 -50 32 -100 66
-49 34 -106 67 -125 73 -54 17 -187 20 -265 7z m407 -522 c11 -9 18 -11 18 -5
0 7 11 12 25 12 16 0 25 -6 25 -15 0 -8 3 -15 8 -15 4 0 13 -10 21 -22 28 -46
48 -158 61 -348 5 -74 11 -157 14 -185 3 -27 0 -84 -7 -125 -11 -60 -17 -74
-30 -72 -10 2 -17 -2 -17 -8 0 -5 -7 -10 -15 -10 -8 0 -15 -4 -15 -10 0 -5 -6
-7 -14 -4 -8 3 -28 -14 -51 -45 -20 -28 -39 -51 -41 -51 -2 0 -2 16 1 37 4 32
0 41 -38 79 -40 40 -45 42 -88 37 -33 -4 -48 -1 -58 11 -7 9 -19 16 -26 16
-26 0 -24 29 3 50 25 20 26 23 11 48 -19 34 -43 39 -85 16 -28 -15 -38 -17
-54 -6 -12 7 -20 8 -20 2 0 -6 -11 -3 -25 6 -26 17 -52 13 -83 -14 -18 -16
-19 -21 -7 -49 10 -24 10 -36 1 -54 -10 -21 -19 -24 -68 -24 -49 0 -61 -4 -87
-29 -17 -17 -31 -39 -31 -50 0 -12 -4 -27 -9 -35 -7 -11 -11 -10 -20 7 -6 11
-11 28 -11 37 0 9 -4 14 -9 11 -5 -3 -11 0 -14 8 -3 7 -25 23 -50 35 -35 17
-46 28 -51 53 -9 47 -7 198 4 243 6 22 15 102 20 179 12 159 27 206 63 206 14
0 27 -7 31 -15 3 -8 12 -15 20 -15 8 0 16 -5 18 -11 4 -13 65 -23 86 -13 10 4
39 7 67 6 27 0 62 6 77 14 22 12 41 12 92 4 51 -8 77 -7 120 4 54 14 114 46
88 46 -7 0 -10 5 -7 10 3 6 -2 11 -12 11 -17 1 -17 2 0 6 10 3 37 15 60 29 49
28 83 30 109 7z m201 -686 c3 -8 1 -20 -4 -28 -6 -10 -9 -7 -9 14 0 29 5 35
13 14z m-389 -182 c15 -8 33 -15 40 -15 26 -1 68 -48 70 -77 1 -17 8 -38 16
-48 12 -15 12 -20 -1 -43 -11 -20 -28 -30 -64 -39 -28 -6 -45 -12 -40 -13 6
-1 -1 -5 -15 -9 -19 -5 -29 -2 -42 15 -19 24 -23 44 -9 44 5 0 12 12 16 27 3
15 10 30 14 33 5 3 11 15 15 27 6 19 1 25 -31 40 -50 23 -50 23 -33 33 13 8
12 12 -5 24 -19 15 -19 15 10 16 17 0 43 -7 59 -15z m-249 -35 c8 -13 -14 -42
-25 -35 -4 3 -18 -3 -30 -13 l-22 -18 36 -37 c41 -43 44 -59 16 -85 -20 -19
-77 -22 -89 -4 -3 5 -18 12 -32 15 -30 8 -49 54 -29 67 8 5 9 10 2 14 -14 8
-3 46 14 46 7 0 25 13 41 30 22 23 37 29 70 30 23 0 45 -5 48 -10z m405 -30
c0 -5 -2 -10 -4 -10 -3 0 -8 5 -11 10 -3 6 -1 10 4 10 6 0 11 -4 11 -10z
m-256 -539 c7 -10 -33 -23 -46 -15 -5 3 -6 10 -3 15 8 12 42 12 49 0z"/>
<path d="M2420 3553 c0 -5 -19 -9 -43 -11 -23 -1 -43 -6 -45 -10 -1 -4 -29 -7
-62 -7 -33 1 -60 -2 -60 -6 0 -4 -8 -5 -18 -2 -12 3 -32 -11 -61 -42 -38 -41
-42 -51 -36 -78 3 -18 9 -49 12 -70 3 -22 12 -41 21 -44 8 -4 23 -14 32 -22
58 -57 85 -71 131 -71 37 0 51 5 62 20 8 11 21 18 29 15 9 -4 20 6 31 27 60
116 84 153 100 156 37 7 63 -8 87 -50 32 -58 66 -94 104 -111 64 -30 79 -29
137 10 39 26 63 36 88 34 l34 -2 -6 42 c-3 23 -10 45 -16 48 -6 4 -6 12 -2 20
6 9 11 10 15 2 4 -6 14 -11 22 -11 26 0 14 40 -26 83 -39 43 -40 43 -137 55
-54 7 -107 14 -118 16 -11 2 -26 -2 -34 -8 -11 -8 -15 -8 -18 1 -3 9 -14 8
-45 -3 -55 -19 -91 -18 -133 6 -39 22 -45 24 -45 13z m313 -215 c4 -12 4 -25
1 -28 -8 -7 -34 31 -28 41 9 16 22 10 27 -13z m-490 -18 c4 -17 2 -18 -14 -9
-11 5 -17 14 -14 20 10 15 22 10 28 -11z m617 6 c0 -14 -29 -31 -38 -21 -6 6
18 35 29 35 5 0 9 -6 9 -14z"/>
<path d="M3131 3187 c-8 -10 -7 -25 3 -58 8 -24 17 -57 21 -73 10 -48 20 -19
21 65 0 68 -2 79 -17 79 -9 0 -22 -6 -28 -13z"/>
<path d="M1960 2950 c0 -5 5 -10 11 -10 5 0 7 5 4 10 -3 6 -8 10 -11 10 -2 0
-4 -4 -4 -10z"/>
<path d="M2983 2265 c16 -57 17 -135 7 -400 -19 -509 -54 -890 -120 -1315 -34
-217 -45 -284 -69 -420 -12 -63 -21 -118 -21 -122 0 -5 410 -8 910 -8 l910 0
0 48 c0 188 -50 534 -116 807 -54 226 -253 846 -298 933 -21 39 -57 69 -91 74
-16 3 -109 28 -205 56 -96 28 -238 67 -315 87 -77 20 -193 54 -258 75 -65 22
-134 40 -153 40 -38 0 -46 7 -138 110 -27 31 -46 46 -43 35z"/>
<path d="M2022 2186 c-61 -72 -77 -85 -119 -96 -26 -7 -115 -40 -198 -73 -82
-32 -204 -78 -270 -102 -175 -62 -217 -80 -345 -146 -63 -32 -120 -59 -127
-59 -6 0 -22 -13 -35 -29 -25 -30 -95 -260 -124 -409 -31 -158 -74 -588 -94
-932 -6 -102 -13 -220 -16 -263 l-5 -77 890 0 c490 0 891 2 891 5 0 2 -18 66
-41 142 -115 388 -214 805 -268 1128 -9 55 -16 95 -52 295 -6 36 -15 126 -20
200 -5 74 -11 153 -14 175 -12 90 -8 240 7 283 9 23 15 42 14 42 -2 0 -34 -38
-74 -84z"/>
<path d="M2121 2189 c-1 -4 13 -53 30 -110 30 -103 63 -186 96 -244 9 -16 27
-50 40 -74 13 -25 30 -52 38 -61 8 -9 15 -20 15 -24 0 -4 12 -23 28 -42 18
-23 35 -34 53 -34 33 0 41 -8 28 -31 -8 -15 -4 -21 21 -34 30 -16 30 -15 30
13 0 18 13 43 35 69 28 33 32 42 19 47 -10 4 -13 2 -8 -6 4 -7 3 -8 -5 -4 -6
4 -9 11 -6 16 3 5 1 20 -5 35 -15 40 -54 31 -58 -12 -2 -18 -6 -33 -10 -33
-15 1 -83 164 -77 187 4 18 -4 29 -44 60 -28 21 -50 43 -50 50 -1 7 -10 17
-20 23 -11 5 -23 19 -26 30 -4 11 -11 18 -16 15 -5 -4 -9 -1 -9 5 0 6 -12 23
-26 37 -15 15 -37 49 -50 77 -12 28 -23 48 -23 45z"/>
<path d="M2910 2148 c-23 -56 -172 -228 -198 -228 -8 0 -30 -14 -49 -30 -19
-17 -38 -28 -43 -25 -5 3 -14 -3 -19 -14 -6 -11 -23 -21 -38 -23 -24 -3 -28
-7 -26 -33 2 -16 3 -41 4 -55 0 -19 6 -26 21 -27 16 -2 18 1 9 10 -14 14 -15
31 -1 22 6 -3 7 1 4 9 -4 11 0 16 10 16 11 0 16 -9 17 -27 0 -16 3 -22 6 -15
2 6 8 10 12 7 5 -2 6 7 3 20 -2 14 0 25 6 25 13 0 24 -29 16 -42 -3 -5 4 -4
15 4 17 10 18 14 6 16 -8 2 -15 10 -15 18 0 11 4 12 18 5 14 -7 21 -5 31 12 8
12 45 63 82 114 38 50 69 94 69 97 0 4 11 23 25 44 24 37 58 122 51 129 -2 2
-9 -11 -16 -29z"/>
<path d="M2610 1700 c-9 -6 -10 -10 -3 -10 6 0 15 5 18 10 8 12 4 12 -15 0z"/>
</g>
</svg>
